#!OML:ASF I:\Actors\actors\Patient Classification 2\Patient 1\Session 1\actor1.ASF
:FULLY-SPECIFIED
:DEGREES
897
root -0.555987 18.7092 5.48166 2.06952 -3.95409 -0.772138
lowerback 2.35377 -0.596235 -0.785102
upperback -1.72971 -0.801514 0.84259
thorax -3.07358 -0.373315 1.34596
lowerneck -11.6363 0.00569082 0.455788
upperneck 25.5913 -1.21703 4.06672
head 10.0809 -0.0666853 1.20522
rclavicle 1.91734e-014 4.27387e-015
rhumerus -49.1869 -7.36928 -79.5372
rradius 49.0065
rwrist 16.8858
rhand -5.20593 -38.8679
rfingers 7.12502
rthumb 20.5955 -67.7953
lclavicle 1.91734e-014 4.27387e-015
lhumerus -40.8826 -16.2138 95.327
lradius 86.7279
lwrist 27.7072
lhand -15.6706 -15.6125
lfingers 7.12502
lthumb 10.5179 14.1043
rfemur 0 0 0
rtibia 0
rfoot 0 0
rtoes 0
lfemur -4.56834 -5.58837 -14.245
ltibia 21.0532
lfoot -23.3111 16.7957
ltoes -54.5895
898
root -0.558068 18.7085 5.48616 2.06567 -4.01826 -0.783364
lowerback 2.33453 -0.573167 -0.696197
upperback -1.75272 -0.7687 0.792344
thorax -3.08915 -0.359236 1.24277
lowerneck -11.6281 -0.0558472 0.479765
upperneck 25.6217 -1.29703 4.01329
head 10.0916 -0.107216 1.17298
rclavicle 8.26665e-015 1.98785e-015
rhumerus -49.2464 -7.45739 -79.5814
rradius 48.8812
rwrist 17.1832
rhand -4.88012 -38.7245
rfingers 7.12502
rthumb 20.9086 -67.6177
lclavicle 8.26665e-015 1.98785e-015
lhumerus -41.4143 -15.5626 95.2932
lradius 84.2798
lwrist 27.0427
lhand -15.5883 -15.5427
lfingers 7.12502
lthumb 10.5973 14.1701
rfemur 0 0 0
rtibia 0
rfoot 0 0
rtoes 0
lfemur -4.53013 -5.57415 -14.2358
ltibia 21.0368
lfoot -23.3404 16.8496
ltoes -54.5452
899
root -0.560395 18.7076 5.49151 2.05552 -4.0997 -0.802508
lowerback 2.28938 -0.552218 -0.624062
upperback -1.76857 -0.738529 0.76958
thorax -3.08195 -0.345999 1.177
lowerneck -11.5264 -0.0912552 0.453941
upperneck 25.5558 -1.32 3.9503
head 10.0479 -0.129681 1.1514
rclavicle 8.57104e-015 -3.27995e-015
rhumerus -49.3064 -7.54612 -79.5833
rradius 48.7727
rwrist 17.4834
rhand -4.60886 -38.5478
rfingers 7.12502
rthumb 21.1692 -67.412
lclavicle 8.57104e-015 -3.27995e-015
lhumerus -41.9947 -14.914 95.273
lradius 81.9259
lwrist 26.6644
lhand -15.9156 -15.4366
lfingers 7.12502
lthumb 10.2815 14.2921
rfemur 0 0 0
rtibia 0
rfoot 0 0
rtoes 0
lfemur -4.45901 -5.70343 -14.2369
ltibia 21.0129
lfoot -23.485 17.0033
ltoes -54.4522
900
root -0.562104 18.7069 5.49696 2.0595 -4.17351 -0.853375
lowerback 2.23065 -0.516833 -0.518285
upperback -1.77249 -0.687393 0.765782
thorax -3.05535 -0.322968 1.11063
lowerneck -11.4828 -0.131947 0.381644
upperneck 25.4784 -1.33891 3.88226
head 10.0113 -0.154593 1.13657
rclavicle -2.41337e-015 3.27995e-015
rhumerus -49.3404 -7.70254 -79.5748
rradius 48.6001
rwrist 17.4276
rhand -4.97857 -38.4946
rfingers 7.12502
rthumb 20.814 -67.3982
lclavicle -2.41337e-015 3.27995e-015
lhumerus -42.5613 -14.2797 95.2572
lradius 79.6297
lwrist 26.3409
lhand -16.4077 -15.3227
lfingers 7.12502
lthumb 9.80685 14.429
rfemur 0 0 0
rtibia 0
rfoot 0 0
rtoes 0
lfemur -4.3853 -5.99951 -14.2211
ltibia 20.9764
lfoot -23.7181 17.2673
ltoes -54.3329
901
root -0.563093 18.7056 5.50228 2.06321 -4.23596 -0.85441
lowerback 2.15597 -0.486213 -0.477936
upperback -1.75108 -0.645204 0.759448
thorax -2.99259 -0.303256 1.07848
lowerneck -11.5632 -0.18584 0.291213
upperneck 25.4803 -1.37822 3.81504
head 10.0279 -0.18808 1.12384
rclavicle 3.68295e-015 3.8266e-015
rhumerus -49.2396 -7.84754 -79.5613
rradius 48.2787
rwrist 17.3847
rhand -5.35225 -38.4839
rfingers 7.12502
rthumb 20.4549 -67.4264
lclavicle 3.68295e-015 3.8266e-015
lhumerus -42.9949 -13.6098 95.2014
lradius 77.3435
lwrist 26.0666
lhand -16.577 -15.2666
lfingers 7.12502
lthumb 9.64345 14.4926
rfemur 0 0 0
rtibia 0
rfoot 0 0
rtoes 0
lfemur -4.32911 -6.17782 -14.2478
ltibia 20.9436
lfoot -23.8801 17.4086
ltoes -54.2155
902
root -0.565185 18.7046 5.50818 2.05811 -4.31453 -0.805353
lowerback 2.08217 -0.456247 -0.511664
upperback -1.73225 -0.606682 0.745967
thorax -2.93223 -0.283852 1.08084
lowerneck -11.6261 -0.232804 0.233091
upperneck 25.4861 -1.40468 3.7095
head 10.0418 -0.217093 1.09359
rclavicle -4.7421e-015 -2.83268e-015
rhumerus -49.0944 -7.93823 -79.5385
rradius 47.9146
rwrist 17.5296
rhand -5.42391 -38.5253
rfingers 7.12502
rthumb 20.3861 -67.4752
lclavicle -4.7421e-015 -2.83268e-015
lhumerus -43.3172 -12.8882 95.1056
lradius 75.0411
lwrist 25.7447
lhand -16.4212 -15.0364
lfingers 7.12502
lthumb 9.79382 14.7159
rfemur 0 0 0
rtibia 0
rfoot 0 0
rtoes 0
lfemur -4.27687 -6.15488 -14.3092
ltibia 20.92
lfoot -23.908 17.4323
ltoes -54.1948
903
root -0.567876 18.7037 5.51494 2.05528 -4.37878 -0.806722
lowerback 2.01516 -0.413013 -0.464723
upperback -1.72572 -0.547741 0.729509
thorax -2.88959 -0.255833 1.03424
lowerneck -11.6161 -0.280951 0.15922
upperneck 25.4521 -1.43471 3.63601
head 10.0277 -0.246837 1.0764
rclavicle -1.20964e-014 1.15295e-014
rhumerus -49.0181 -8.09409 -79.4714
rradius 47.6297
rwrist 17.8789
rhand -5.15158 -38.6579
rfingers 7.12502
rthumb 20.6478 -67.5797
lclavicle -1.20964e-014 1.15295e-014
lhumerus -43.5912 -12.1652 94.9716
lradius 72.7275
lwrist 25.3682
lhand -16.2457 -14.6827
lfingers 7.12502
lthumb 9.96316 15.0615
rfemur 0 0 0
rtibia 0
rfoot 0 0
rtoes 0
lfemur -4.22393 -6.10162 -14.3103
ltibia 20.898
lfoot -23.9093 17.4661
ltoes -54.2343
904
root -0.570687 18.7028 5.52107 2.06548 -4.40747 -0.839857
lowerback 1.95288 -0.378716 -0.382857
upperback -1.72842 -0.49941 0.721465
thorax -2.859 -0.23362 0.977395
lowerneck -11.5512 -0.320643 0.0542834
upperneck 25.3575 -1.45129 3.5954
head 9.98117 -0.270841 1.07709
rclavicle -1.46316e-014 -5.91384e-015
rhumerus -49.002 -8.32955 -79.3324
rradius 47.4079
rwrist 18.4986
rhand -4.44078 -38.7091
rfingers 7.12502
rthumb 21.3306 -67.5552
lclavicle -1.46316e-014 -5.91384e-015
lhumerus -43.873 -11.4138 94.7991
lradius 70.5183
lwrist 25.0187
lhand -16.158 -14.2573
lfingers 7.12502
lthumb 10.0478 15.4828
rfemur 0 0 0
rtibia 0
rfoot 0 0
rtoes 0
lfemur -4.19878 -6.05242 -14.2671
ltibia 20.8851
lfoot -23.9066 17.4774
ltoes -54.2587
